<?xml version="1.0" encoding="UTF-8"?>
<svg xmlns="http://www.w3.org/2000/svg" width="171" height="34" viewBox="0 0 171 34" fill="none">
  <path d="M55.7108 30.7345C58.9196 30.7345 61.223 29.3898 62.6209 26.7006H66.5287C65.7026 28.8776 64.3842 30.6384 62.5732 31.9831C60.7941 33.3277 58.4907 34 55.6631 34C52.073 34 49.1501 32.7994 46.8944 30.3983C44.7022 28.0612 43.6061 25.1318 43.6061 21.6102C43.6061 18.0565 44.6546 15.1271 46.7514 12.822C48.9754 10.4209 51.8665 9.22034 55.4248 9.22034C58.9831 9.22034 61.8743 10.4209 64.0982 12.822C66.1951 15.1271 67.2435 18.0565 67.2435 21.6102V23.0508H47.2757C47.5298 25.2599 48.4035 27.0847 49.8967 28.5254C51.4217 29.9981 53.3597 30.7345 55.7108 30.7345ZM55.4248 12.4859C53.2327 12.4859 51.39 13.1742 49.8967 14.5508C48.4988 15.8635 47.641 17.5763 47.3233 19.6893H63.5263C63.2086 17.5763 62.3508 15.8635 60.9529 14.5508C59.4597 13.1742 57.617 12.4859 55.4248 12.4859Z" fill="#2A2E31"></path>
  <path d="M73.2787 33.6158H69.7045V0H73.2787V33.6158Z" fill="#2A2E31"></path>
  <path d="M88.1988 30.7345C91.4076 30.7345 93.711 29.3898 95.1089 26.7006H99.0167C98.1906 28.8776 96.8722 30.6384 95.0612 31.9831C93.2821 33.3277 90.9787 34 88.1511 34C84.561 34 81.6381 32.7994 79.3824 30.3983C77.1902 28.0612 76.0941 25.1318 76.0941 21.6102C76.0941 18.0565 77.1426 15.1271 79.2394 12.822C81.4634 10.4209 84.3545 9.22034 87.9128 9.22034C91.4711 9.22034 94.3623 10.4209 96.5862 12.822C98.6831 15.1271 99.7315 18.0565 99.7315 21.6102V23.0508H79.7636C80.0178 25.2599 80.8915 27.0847 82.3847 28.5254C83.9097 29.9981 85.8477 30.7345 88.1988 30.7345ZM87.9128 12.4859C85.7206 12.4859 83.8779 13.1742 82.3847 14.5508C80.9868 15.8635 80.129 17.5763 79.8113 19.6893H96.0143C95.6966 17.5763 94.8388 15.8635 93.4409 14.5508C91.9477 13.1742 90.105 12.4859 87.9128 12.4859Z" fill="#2A2E31"></path>
  <path d="M105.767 9.60452V13.3503C106.624 12.1977 107.673 11.2213 108.912 10.4209C110.151 9.62053 111.565 9.22034 113.153 9.22034C114.742 9.22034 116.108 9.44445 117.252 9.89266C118.396 10.3409 119.396 11.0132 120.254 11.9096C122.224 13.8625 123.209 16.4397 123.209 19.6412V33.6158H119.635V19.7373C119.635 17.5282 119.015 15.7674 117.776 14.4548C116.537 13.1422 114.933 12.4859 112.963 12.4859C110.961 12.4859 109.261 13.1582 107.864 14.5028C106.466 15.8795 105.767 17.6403 105.767 19.7853V33.6158H102.192V9.60452H105.767Z" fill="#2A2E31"></path>
  <path d="M137.906 30.7345C141.115 30.7345 143.418 29.3898 144.816 26.7006H148.724C147.898 28.8776 146.58 30.6384 144.769 31.9831C142.99 33.3277 140.686 34 137.859 34C134.268 34 131.346 32.7994 129.09 30.3983C126.898 28.0612 125.802 25.1318 125.802 21.6102C125.802 18.0565 126.85 15.1271 128.947 12.822C131.171 10.4209 134.062 9.22034 137.62 9.22034C141.179 9.22034 144.07 10.4209 146.294 12.822C148.391 15.1271 149.439 18.0565 149.439 21.6102V23.0508H129.471C129.725 25.2599 130.599 27.0847 132.092 28.5254C133.617 29.9981 135.555 30.7345 137.906 30.7345ZM137.62 12.4859C135.428 12.4859 133.585 13.1742 132.092 14.5508C130.694 15.8635 129.836 17.5763 129.519 19.6893H145.722C145.404 17.5763 144.546 15.8635 143.148 14.5508C141.655 13.1742 139.812 12.4859 137.62 12.4859Z" fill="#2A2E31"></path>
  <path d="M161.545 21.226L170.791 33.6158H166.216L159.496 23.8192L152.729 33.6158H148.202L157.399 21.226L148.774 9.60452H153.349L159.496 18.6808L165.596 9.60452H170.171L161.545 21.226Z" fill="#2A2E31"></path>
  <path d="M6.19394 3.79718C6.51718 3.61475 6.9054 3.59293 7.24682 3.73756L28.9553 12.9335L31.712 9.13852C32.0416 8.68509 32.6364 8.51841 33.1499 8.73592L36.8122 10.2873C37.4252 10.5469 37.713 11.2589 37.4552 11.8776C37.1974 12.4962 36.4915 12.7872 35.8786 12.5276L33.0922 11.3472L23.137 25.052C22.8073 25.5059 22.2126 25.6721 21.6992 25.4546L4.42325 18.1363C3.91309 17.9202 3.61474 17.3809 3.70051 16.8294L5.59053 4.67052C5.64822 4.30142 5.8707 3.97962 6.19394 3.79718ZM6.22517 16.2639L21.7568 22.8433L27.4911 14.9491L7.73116 6.57855L6.22517 16.2639Z" fill="#1D4AE9"></path>
  <path fill-rule="evenodd" clip-rule="evenodd" d="M21.1306 31.3947C22.0226 29.2339 21.0231 26.738 18.9025 25.8311C16.782 24.9242 14.331 25.9444 13.439 28.1052C12.547 30.2661 13.5465 32.7619 15.6671 33.6688C17.7876 34.5757 20.2386 33.5555 21.1306 31.3947ZM16.9634 32.0132C15.7442 31.8438 14.8915 30.6995 15.0588 29.4575C15.2261 28.2154 16.3501 27.3459 17.5693 27.5153C18.7885 27.6847 19.6412 28.829 19.4739 30.071C19.3065 31.3131 18.1826 32.1826 16.9634 32.0132Z" fill="#1D4AE9"></path>
  <path fill-rule="evenodd" clip-rule="evenodd" d="M8.01798 25.9304C8.90998 23.7696 7.91052 21.2738 5.78992 20.3668C3.66937 19.4599 1.21841 20.4801 0.326402 22.641C-0.565613 24.8018 0.433904 27.2976 2.55446 28.2045C4.675 29.1114 7.12597 28.0912 8.01798 25.9304ZM3.85079 26.5489C2.63161 26.3795 1.7789 25.2352 1.94621 23.9932C2.11352 22.7511 3.2375 21.8816 4.45668 22.051C5.67586 22.2204 6.52857 23.3647 6.36126 24.6067C6.19395 25.8488 5.06997 26.7183 3.85079 26.5489Z" fill="#1D4AE9"></path>
</svg>
